<?xml version="1.0" encoding="UTF-8" standalone="no"?>
<!-- Created with Inkscape (http://www.inkscape.org/) -->

<svg
   width="120.26458"
   height="20.132282"
   viewBox="0 0 120.26458 20.132282"
   version="1.1"
   id="svg1"
   inkscape:version="1.4 (e7c3feb1, 2024-10-09)"
   sodipodi:docname="zooprocess_icons.svg"
   xmlns:inkscape="http://www.inkscape.org/namespaces/inkscape"
   xmlns:sodipodi="http://sodipodi.sourceforge.net/DTD/sodipodi-0.dtd"
   xmlns="http://www.w3.org/2000/svg"
   xmlns:svg="http://www.w3.org/2000/svg">
  <sodipodi:namedview
     id="namedview1"
     pagecolor="#ffffff"
     bordercolor="#666666"
     borderopacity="1.0"
     inkscape:showpageshadow="2"
     inkscape:pageopacity="0.0"
     inkscape:pagecheckerboard="0"
     inkscape:deskcolor="#d1d1d1"
     inkscape:document-units="px"
     showgrid="false"
     inkscape:zoom="5.2190616"
     inkscape:cx="39.758105"
     inkscape:cy="53.074675"
     inkscape:window-width="1664"
     inkscape:window-height="1041"
     inkscape:window-x="47"
     inkscape:window-y="43"
     inkscape:window-maximized="0"
     inkscape:current-layer="layer1">
    <inkscape:grid
       id="grid1"
       units="px"
       originx="0"
       originy="0"
       spacingx="0.99999999"
       spacingy="1"
       empcolor="#0099e5"
       empopacity="0.30196078"
       color="#0099e5"
       opacity="0.14901961"
       empspacing="20"
       enabled="true"
       visible="false"
       dotted="false" />
  </sodipodi:namedview>
  <defs
     id="defs1" />
  <g
     inkscape:label="Layer 1"
     inkscape:groupmode="layer"
     id="layer1"
     transform="translate(-239.93386,-119.93386)">
    <g
       id="g14">
      <path
         style="fill:none;fill-rule:evenodd;stroke:#000000;stroke-width:1;stroke-linecap:round;stroke-linejoin:round;stroke-dasharray:none;stroke-opacity:1"
         d="m 332.83462,188.56738 c -0.43378,-1.11843 -1.09573,-1.73714 -1.95923,-1.8812 l 2.09332,7.10179 a 1.2751584,1.2751584 0 0 0 0.31151,0.70598 c 0.16402,0.17409 0.27317,0.184 0.44975,0.29919 a 0.71258848,0.71258848 0 0 1 0.31766,0.43916 l 0.0161,0.22792 c 0.0147,0.20349 0.0637,0.41524 -0.12103,0.5663 -0.12195,0.0992 -0.30889,0.10235 -0.54008,0.0387 a 1.5199257,1.5199257 0 0 0 -0.62007,0.10979 1.7686408,1.7686408 0 0 0 -0.54551,0.36629 c -0.48629,0.56594 -0.6781,1.27211 -0.4072,2.20248 0.28294,1.08782 0.91703,1.59272 1.74027,1.77614 0.54864,0.0552 0.9714,-0.10215 1.28875,-0.43504 0.48757,-0.51152 0.63485,-1.1538 0.55986,-1.83614 a 7.2719556,7.2719556 0 0 0 -0.32928,-1.36106 l -0.25448,-1.73564 -0.0757,0.0438 z"
         id="path1" />
      <path
         style="fill:none;fill-rule:evenodd;stroke:#000000;stroke-width:1;stroke-linecap:round;stroke-linejoin:round;stroke-dasharray:none;stroke-opacity:1"
         d="m 333.53727,197.23008 c -0.31445,-0.0587 -0.53699,0.1368 -0.65937,0.41087 -0.0989,0.22015 -0.11027,0.47978 -0.0403,0.77661 a 1.4686396,1.4833526 0 0 0 0.47095,0.75641 c 0.45534,0.36384 0.88811,0.0618 1.01765,-0.44154 a 1.1644998,1.1761658 0 0 0 -0.0388,-0.69788 1.6398895,1.6563181 0 0 0 -0.25806,-0.48263 0.83295983,0.84130451 0 0 0 -0.49119,-0.32284 z"
         id="path53" />
      <path
         style="fill:none;fill-rule:evenodd;stroke:#000000;stroke-width:1;stroke-linecap:round;stroke-linejoin:round;stroke-dasharray:none;stroke-opacity:1"
         d="m 337.06706,193.57711 c -0.0709,-0.32278 0.10684,-0.5634 0.36278,-0.70375 0.20547,-0.11281 0.45366,-0.13779 0.73841,-0.0773 0.28639,0.0628 0.54764,0.21912 0.74781,0.44761 0.3694,0.4533 0.10056,0.91647 -0.37464,1.0754 -0.21853,0.0709 -0.45194,0.0692 -0.66953,-0.005 -0.16922,-0.0527 -0.32917,-0.13503 -0.47341,-0.2436 -0.20846,-0.0881 -0.22594,-0.33634 -0.33142,-0.49336 z"
         id="path51"
         sodipodi:nodetypes="cccccccc" />
      <path
         style="fill:none;fill-rule:evenodd;stroke:#000000;stroke-width:1;stroke-linecap:round;stroke-linejoin:round;stroke-dasharray:none;stroke-opacity:1"
         d="m 335.25688,193.9461 c 0.094,-0.12721 0.66614,-0.22043 0.59094,-0.44758 -0.0161,-0.21304 0.0127,-0.42708 0.0847,-0.62824 0.0764,-0.20558 0.19045,-0.39511 0.33636,-0.55884 0.54201,-0.51281 1.23887,-0.73893 2.18043,-0.51226 1.09323,0.23501 1.63131,0.84053 1.85395,1.65404 0.0857,0.54386 -0.0541,0.97653 -0.3694,1.3073 -0.48417,0.50794 -1.12208,0.68937 -1.80653,0.64642 -0.4659,-0.043 -0.9265,-0.13134 -1.37528,-0.26368 l -1.17859,-0.16537 c 0,0 -0.36419,-0.67143 -0.31658,-1.03179 z"
         id="path50"
         sodipodi:nodetypes="ccccccscccc" />
      <path
         style="fill:none;fill-rule:evenodd;stroke:#000000;stroke-width:1;stroke-linecap:round;stroke-linejoin:round;stroke-dasharray:none;stroke-opacity:1"
         d="m 328.33333,193.28955 c -1.13791,-0.37974 -1.7876,-1.01131 -1.97285,-1.86691 l 5.02381,1.25971 0.45007,1.47756 z"
         id="path49"
         sodipodi:nodetypes="ccccc" />
    </g>
    <g
       id="g2">
      <rect
         style="fill-opacity:1"
         id="rect3"
         width="11.000003"
         height="9.000001"
         x="265.43387"
         y="123.43385"
         rx="0"
         ry="0" />
      <rect
         style="fill:#ffffff;fill-opacity:1"
         id="rect3-9"
         width="10.999991"
         height="9"
         x="263.43387"
         y="127.43386"
         rx="0"
         ry="0" />
    </g>
    <g
       id="g1">
      <path
         style="fill:none;fill-opacity:1"
         d="m 242.93386,122.93386 h 7"
         id="path3" />
      <path
         style="fill:none;fill-opacity:1"
         d="m 244.93386,124.93386 h 3"
         id="path4"
         sodipodi:nodetypes="cc" />
      <path
         style="fill:none;fill-opacity:1"
         d="m 249.93386,124.93386 h 3"
         id="path5"
         sodipodi:nodetypes="cc" />
      <path
         style="fill:none;fill-opacity:1"
         d="m 244.93386,126.93386 h 4"
         id="path6"
         sodipodi:nodetypes="cc" />
      <path
         style="fill:none;fill-opacity:1"
         d="m 250.93386,126.93386 h 6"
         id="path7"
         sodipodi:nodetypes="cc" />
      <path
         style="fill:none;fill-opacity:1"
         d="m 244.93386,128.93386 h 3"
         id="path8"
         sodipodi:nodetypes="cc" />
      <path
         style="fill:none;fill-opacity:1"
         d="m 249.93386,128.93386 h 4.0625"
         id="path9"
         sodipodi:nodetypes="cc" />
      <path
         style="fill:none;fill-opacity:1"
         d="m 242.93386,130.93386 h 8"
         id="path10"
         sodipodi:nodetypes="cc" />
      <path
         style="fill:none;fill-opacity:1"
         d="m 244.93386,132.93386 h 2"
         id="path11"
         sodipodi:nodetypes="cc" />
      <path
         style="fill:none;fill-opacity:1"
         d="m 248.93386,132.93386 h 8"
         id="path12"
         sodipodi:nodetypes="cc" />
      <path
         style="fill:none;fill-opacity:1"
         d="m 244.93386,134.93386 h 3"
         id="path13"
         sodipodi:nodetypes="cc" />
      <path
         style="fill:none;fill-opacity:1"
         d="m 249.93386,134.93386 h 2"
         id="path14"
         sodipodi:nodetypes="cc" />
      <path
         style="fill:none;fill-opacity:1"
         d="m 244.93386,136.93386 h 2"
         id="path15"
         sodipodi:nodetypes="cc" />
      <path
         style="fill:none;fill-opacity:1"
         d="m 248.93386,136.93386 h 5"
         id="path16"
         sodipodi:nodetypes="cc" />
    </g>
    <g
       id="g3">
      <path
         style="fill:none"
         d="m 286.96593,130.43386 -0.81976,2 c 0,0 8.19757,0 8.19757,0 l -0.81976,-2 z"
         id="path18" />
      <path
         style="fill:none"
         d="m 283.43385,133.93386 v 2.5 h 1.68749 v -0.62499 h 10.12502 v 0.62499 h 1.68749 v -2.5 z"
         id="path19" />
      <path
         style="fill:none"
         d="m 285.93386,128.93386 -2,-4 h 13 l -2.07537,4 z"
         id="path20"
         sodipodi:nodetypes="ccccc" />
      <path
         style="fill:none"
         d="m 283.93385,124.93386 v -1.56614 h 13 v 1.56614 z"
         id="path21" />
      <path
         style="fill:none"
         d="m 285.88198,128.93386 -2.44812,5 h 13.5 l -2.07537,-5 z"
         id="path24"
         sodipodi:nodetypes="ccccc" />
    </g>
    <g
       id="g6">
      <path
         style="fill:none"
         d="m 343.93386,130.93386 v 5 h 12 v -5 0"
         id="path37" />
      <path
         style="fill:none"
         d="m 349.93386,124.43386 v 8.5"
         id="path38"
         sodipodi:nodetypes="cc" />
      <path
         style="fill:none"
         d="m 347.93386,126.43386 2,-2 2,2"
         id="path39" />
    </g>
    <g
       id="g5">
      <path
         style="fill:none;stroke-width:1.78199"
         d="m 321.65459,127.86422 c 1.63668,-2.14411 5.25215,-1.4676 6.38203,-1.89701 1.12987,-0.42942 3.50415,-2.16736 6.86078,-0.96786"
         id="path40"
         sodipodi:nodetypes="csc" />
      <path
         style="fill:none;stroke-width:1.78199"
         d="m 328.03662,125.96721 c -2.42105,0.75646 -0.23343,8.93587 1.66809,8.31956 1.9015,-0.61631 0.75295,-9.07603 -1.66809,-8.31956 z"
         id="path41"
         sodipodi:nodetypes="zzz" />
      <path
         style="fill:none;stroke-width:1.78199"
         d="m 329.70471,134.28677 0.62801,2.83405"
         id="path42" />
      <path
         style="fill:none;stroke-width:1.20578"
         d="m 330.27723,127.10614 c 1.69947,-1.76201 3.30878,0.34078 4.01131,0.29299 0.70254,-0.0478 2.64067,-1.87213 4.08738,-0.63339"
         id="path43"
         sodipodi:nodetypes="csc" />
      <path
         style="fill:none;stroke-width:1.20578"
         d="m 334.19091,127.58803 c -2.11499,-0.0155 -1.596,5.54737 -0.42712,5.52867 1.16887,-0.0187 2.54213,-5.51313 0.42712,-5.52867 z"
         id="path44"
         sodipodi:nodetypes="zzz" />
      <path
         style="fill:none;stroke-width:1.20578"
         d="m 333.51559,133.49146 -0.8297,3.22431"
         id="path45"
         sodipodi:nodetypes="cc" />
      <path
         style="fill:none;stroke-width:1.20578"
         d="m 333.86037,133.21007 0.39194,3.50355"
         id="path48"
         sodipodi:nodetypes="cc" />
    </g>
    <g
       id="g4">
      <path
         id="path25"
         style="fill:none;fill-opacity:1"
         d="m 308.55105,123.59597 a 6.4999318,6.4999371 0 0 0 -2.06836,0.8457 l 0.42969,1.11914 -1.41407,1.41407 -1.0664,-0.48633 a 6.4999318,6.4999371 0 0 0 -0.8086,1.91992 l 1.10938,0.41406 v 2 l -1.13281,0.50586 a 6.4999318,6.4999371 0 0 0 0.8496,2.06641 l 1.04883,-0.47852 1.41407,1.41406 -0.42383,1.10352 a 6.4999318,6.4999371 0 0 0 2.06836,0.8418 l 0.37695,-1.00782 h 2 l 0.44727,1.00391 a 6.4999318,6.4999371 0 0 0 2.05664,-0.86523 l -0.41211,-0.9043 1.41601,-1.41406 0.95313,0.36523 a 6.4999318,6.4999371 0 0 0 0.9082,-2.21875 l -0.92383,-0.41211 v -2 l 0.87891,-0.32812 a 6.4999318,6.4999371 0 0 0 -0.86133,-2.0586 l -0.95508,0.36524 -1.41601,-1.41407 0.41601,-0.9121 a 6.4999318,6.4999371 0 0 0 -2.05664,-0.86719 l -0.45117,1.01367 h -2 z" />
      <path
         id="path2"
         style="fill:none;fill-opacity:1;stroke-width:0.880955"
         d="m 312.70772,130.61373 c -0.25135,1.2864 -1.36224,2.27154 -2.72264,2.32304 -1.17311,0.0444 -2.20933,-0.61645 -2.6977,-1.60295"
         sodipodi:nodetypes="ccc" />
      <path
         style="font-variation-settings:normal;fill:none;fill-opacity:1;stroke-width:0.880955;stop-color:#000000"
         d="m 311.55911,130.97443 1.2061,-0.7718 0.53231,1.25095"
         id="path17"
         sodipodi:nodetypes="ccc"
         inkscape:transform-center-x="0.35157735"
         inkscape:transform-center-y="0.59164777" />
      <path
         id="path23"
         style="fill:none;fill-opacity:1;stroke-width:0.880955"
         d="m 307.19515,129.2579 c 0.25136,-1.2864 1.36225,-2.27154 2.72265,-2.32305 1.17311,-0.0443 2.20933,0.61645 2.6977,1.60296"
         sodipodi:nodetypes="ccc" />
      <path
         style="font-variation-settings:normal;fill:none;fill-opacity:1;stroke-width:0.880955;stop-color:#000000"
         d="m 308.34376,128.8972 -1.20609,0.77179 -0.53232,-1.25094"
         id="path26"
         sodipodi:nodetypes="ccc"
         inkscape:transform-center-x="0.35157735"
         inkscape:transform-center-y="0.59164777" />
    </g>
    <g
       id="g8">
      <rect
         style="fill-opacity:1;stroke:#000000;stroke-width:1;stroke-linecap:round;stroke-linejoin:round;stroke-dasharray:none;stroke-opacity:1"
         id="rect3-5"
         width="11.000003"
         height="9.000001"
         x="265.43384"
         y="143.86455"
         rx="0"
         ry="0" />
      <rect
         style="fill:#ffffff;fill-opacity:1;stroke:#000000;stroke-width:1;stroke-linecap:round;stroke-linejoin:round;stroke-dasharray:none;stroke-opacity:1"
         id="rect3-9-7"
         width="10.999991"
         height="9"
         x="263.43384"
         y="147.86456"
         rx="0"
         ry="0" />
    </g>
    <g
       id="g7">
      <path
         style="fill:none;fill-opacity:1;stroke:#000000;stroke-width:1;stroke-linecap:round;stroke-linejoin:round;stroke-dasharray:none;stroke-opacity:1"
         d="m 242.93386,143.36455 h 7"
         id="path3-5" />
      <path
         style="fill:none;fill-opacity:1;stroke:#000000;stroke-width:1;stroke-linecap:round;stroke-linejoin:round;stroke-dasharray:none;stroke-opacity:1"
         d="m 244.93386,145.36455 h 3"
         id="path4-0"
         sodipodi:nodetypes="cc" />
      <path
         style="fill:none;fill-opacity:1;stroke:#000000;stroke-width:1;stroke-linecap:round;stroke-linejoin:round;stroke-dasharray:none;stroke-opacity:1"
         d="m 249.93386,145.36455 h 3"
         id="path5-6"
         sodipodi:nodetypes="cc" />
      <path
         style="fill:none;fill-opacity:1;stroke:#000000;stroke-width:1;stroke-linecap:round;stroke-linejoin:round;stroke-dasharray:none;stroke-opacity:1"
         d="m 244.93386,147.36455 h 4"
         id="path6-4"
         sodipodi:nodetypes="cc" />
      <path
         style="fill:none;fill-opacity:1;stroke:#000000;stroke-width:1;stroke-linecap:round;stroke-linejoin:round;stroke-dasharray:none;stroke-opacity:1"
         d="m 250.93386,147.36455 h 6"
         id="path7-7"
         sodipodi:nodetypes="cc" />
      <path
         style="fill:none;fill-opacity:1;stroke:#000000;stroke-width:1;stroke-linecap:round;stroke-linejoin:round;stroke-dasharray:none;stroke-opacity:1"
         d="m 244.93386,149.36455 h 3"
         id="path8-8"
         sodipodi:nodetypes="cc" />
      <path
         style="fill:none;fill-opacity:1;stroke:#000000;stroke-width:1;stroke-linecap:round;stroke-linejoin:round;stroke-dasharray:none;stroke-opacity:1"
         d="m 249.93386,149.36455 h 4.0625"
         id="path9-4"
         sodipodi:nodetypes="cc" />
      <path
         style="fill:none;fill-opacity:1;stroke:#000000;stroke-width:1;stroke-linecap:round;stroke-linejoin:round;stroke-dasharray:none;stroke-opacity:1"
         d="m 242.93386,151.36455 h 8"
         id="path10-0"
         sodipodi:nodetypes="cc" />
      <path
         style="fill:none;fill-opacity:1;stroke:#000000;stroke-width:1;stroke-linecap:round;stroke-linejoin:round;stroke-dasharray:none;stroke-opacity:1"
         d="m 244.93386,153.36455 h 2"
         id="path11-0"
         sodipodi:nodetypes="cc" />
      <path
         style="fill:none;fill-opacity:1;stroke:#000000;stroke-width:1;stroke-linecap:round;stroke-linejoin:round;stroke-dasharray:none;stroke-opacity:1"
         d="m 248.93386,153.36455 h 8"
         id="path12-6"
         sodipodi:nodetypes="cc" />
      <path
         style="fill:none;fill-opacity:1;stroke:#000000;stroke-width:1;stroke-linecap:round;stroke-linejoin:round;stroke-dasharray:none;stroke-opacity:1"
         d="m 244.93386,155.36455 h 3"
         id="path13-2"
         sodipodi:nodetypes="cc" />
      <path
         style="fill:none;fill-opacity:1;stroke:#000000;stroke-width:1;stroke-linecap:round;stroke-linejoin:round;stroke-dasharray:none;stroke-opacity:1"
         d="m 249.93386,155.36455 h 2"
         id="path14-4"
         sodipodi:nodetypes="cc" />
      <path
         style="fill:none;fill-opacity:1;stroke:#000000;stroke-width:1;stroke-linecap:round;stroke-linejoin:round;stroke-dasharray:none;stroke-opacity:1"
         d="m 244.93386,157.36455 h 2"
         id="path15-7"
         sodipodi:nodetypes="cc" />
      <path
         style="fill:none;fill-opacity:1;stroke:#000000;stroke-width:1;stroke-linecap:round;stroke-linejoin:round;stroke-dasharray:none;stroke-opacity:1"
         d="m 248.93386,157.36455 h 5"
         id="path16-4"
         sodipodi:nodetypes="cc" />
    </g>
    <g
       id="g9">
      <path
         style="fill:none;stroke:#000000;stroke-width:1;stroke-linecap:round;stroke-linejoin:round;stroke-dasharray:none;stroke-opacity:1"
         d="m 286.96593,150.86455 -0.81976,2 c 0,0 8.19757,0 8.19757,0 l -0.81976,-2 z"
         id="path18-1" />
      <path
         style="fill:none;stroke:#000000;stroke-width:1;stroke-linecap:round;stroke-linejoin:round;stroke-dasharray:none;stroke-opacity:1"
         d="m 283.43385,154.36455 v 2.5 h 1.68749 v -0.62499 h 10.12502 v 0.62499 h 1.68749 v -2.5 z"
         id="path19-8" />
      <path
         style="fill:none;stroke:#000000;stroke-width:1;stroke-linecap:round;stroke-linejoin:round;stroke-dasharray:none;stroke-opacity:1"
         d="m 285.93386,149.36455 -2,-4 h 13 l -2.07537,4 z"
         id="path20-5"
         sodipodi:nodetypes="ccccc" />
      <path
         style="fill:none;stroke:#000000;stroke-width:1;stroke-linecap:round;stroke-linejoin:round;stroke-dasharray:none;stroke-opacity:1"
         d="m 283.93385,145.36455 v -1.56614 h 13 v 1.56614 z"
         id="path21-8" />
      <path
         style="fill:none;stroke:#000000;stroke-width:1;stroke-linecap:round;stroke-linejoin:round;stroke-dasharray:none;stroke-opacity:1"
         d="m 285.88198,149.36455 -2.44812,5 h 13.5 l -2.07537,-5 z"
         id="path24-9"
         sodipodi:nodetypes="ccccc" />
    </g>
    <g
       id="g12">
      <path
         style="fill:none;stroke:#000000;stroke-width:1;stroke-linecap:round;stroke-linejoin:round;stroke-dasharray:none;stroke-opacity:1"
         d="m 343.93386,151.36455 v 5 h 12 v -5 0"
         id="path37-9" />
      <path
         style="fill:none;stroke:#000000;stroke-width:1;stroke-linecap:round;stroke-linejoin:round;stroke-dasharray:none;stroke-opacity:1"
         d="m 349.93386,144.86455 v 8.5"
         id="path38-3"
         sodipodi:nodetypes="cc" />
      <path
         style="fill:none;stroke:#000000;stroke-width:1;stroke-linecap:round;stroke-linejoin:round;stroke-dasharray:none;stroke-opacity:1"
         d="m 347.93386,146.86455 2,-2 2,2"
         id="path39-3" />
    </g>
    <g
       id="g11">
      <path
         style="fill:none;stroke:#000000;stroke-width:1;stroke-linecap:round;stroke-linejoin:round;stroke-dasharray:none;stroke-opacity:1"
         d="m 321.65458,148.29491 c 1.63669,-2.14411 5.25216,-1.4676 6.38203,-1.89701 1.12988,-0.42942 3.50415,-2.16736 6.86078,-0.96786"
         id="path40-7"
         sodipodi:nodetypes="csc" />
      <path
         style="fill:none;stroke:#000000;stroke-width:1;stroke-linecap:round;stroke-linejoin:round;stroke-dasharray:none;stroke-opacity:1"
         d="m 328.03661,146.3979 c -2.42105,0.75646 -0.23342,8.93587 1.6681,8.31956 1.9015,-0.61631 0.75295,-9.07603 -1.6681,-8.31956 z"
         id="path41-3"
         sodipodi:nodetypes="zzz" />
      <path
         style="fill:none;stroke:#000000;stroke-width:1;stroke-linecap:round;stroke-linejoin:round;stroke-dasharray:none;stroke-opacity:1"
         d="m 329.70471,154.71746 0.62801,2.83405"
         id="path42-2" />
      <path
         style="fill:none;stroke:#000000;stroke-width:1;stroke-linecap:round;stroke-linejoin:round;stroke-dasharray:none;stroke-opacity:1"
         d="m 330.27723,147.53683 c 1.69947,-1.76201 3.30878,0.34078 4.01131,0.29299 0.70254,-0.0478 2.64067,-1.87213 4.08738,-0.63339"
         id="path43-6"
         sodipodi:nodetypes="csc" />
      <path
         style="fill:none;stroke:#000000;stroke-width:1;stroke-linecap:round;stroke-linejoin:round;stroke-dasharray:none;stroke-opacity:1"
         d="m 334.19091,148.01872 c -2.11499,-0.0155 -1.596,5.54737 -0.42712,5.52867 1.16887,-0.0187 2.54213,-5.51313 0.42712,-5.52867 z"
         id="path44-3"
         sodipodi:nodetypes="zzz" />
      <path
         style="fill:none;stroke:#000000;stroke-width:1;stroke-linecap:round;stroke-linejoin:round;stroke-dasharray:none;stroke-opacity:1"
         d="m 333.51559,153.92215 -0.8297,3.22431"
         id="path45-4"
         sodipodi:nodetypes="cc" />
      <path
         style="fill:none;stroke:#000000;stroke-width:1;stroke-linecap:round;stroke-linejoin:round;stroke-dasharray:none;stroke-opacity:1"
         d="m 333.86037,153.64076 0.39194,3.50355"
         id="path48-0"
         sodipodi:nodetypes="cc" />
    </g>
    <g
       id="g10">
      <path
         id="path25-7"
         style="fill:none;fill-opacity:1;stroke:#000000;stroke-width:1;stroke-linecap:round;stroke-linejoin:round;stroke-dasharray:none;stroke-opacity:1"
         d="m 308.55105,144.02666 a 6.4999318,6.4999371 0 0 0 -2.06836,0.8457 l 0.42969,1.11914 -1.41407,1.41407 -1.0664,-0.48633 a 6.4999318,6.4999371 0 0 0 -0.8086,1.91992 l 1.10938,0.41406 v 2 l -1.13281,0.50586 a 6.4999318,6.4999371 0 0 0 0.8496,2.06641 l 1.04883,-0.47852 1.41407,1.41406 -0.42383,1.10352 a 6.4999318,6.4999371 0 0 0 2.06836,0.8418 l 0.37695,-1.00782 h 2 l 0.44727,1.00391 a 6.4999318,6.4999371 0 0 0 2.05664,-0.86523 l -0.41211,-0.9043 1.41601,-1.41406 0.95313,0.36523 a 6.4999318,6.4999371 0 0 0 0.9082,-2.21875 l -0.92383,-0.41211 v -2 l 0.87891,-0.32812 a 6.4999318,6.4999371 0 0 0 -0.86133,-2.0586 l -0.95508,0.36524 -1.41601,-1.41407 0.41601,-0.9121 a 6.4999318,6.4999371 0 0 0 -2.05664,-0.86719 l -0.45117,1.01367 h -2 z" />
      <path
         id="path2-4"
         style="fill:none;fill-opacity:1;stroke:#000000;stroke-width:0.999998;stroke-linecap:round;stroke-linejoin:round;stroke-dasharray:none;stroke-opacity:1"
         d="m 312.70772,151.04442 c -0.25136,1.2864 -1.36224,2.27154 -2.72264,2.32304 -1.17312,0.0444 -2.20933,-0.61645 -2.69771,-1.60295"
         sodipodi:nodetypes="ccc" />
      <path
         style="font-variation-settings:normal;fill:none;fill-opacity:1;stroke:#000000;stroke-width:0.999998;stroke-linecap:round;stroke-linejoin:round;stroke-dasharray:none;stroke-opacity:1;stop-color:#000000"
         d="m 311.55911,151.40512 1.2061,-0.7718 0.53231,1.25095"
         id="path17-0"
         sodipodi:nodetypes="ccc"
         inkscape:transform-center-x="0.35157735"
         inkscape:transform-center-y="0.59164777" />
      <path
         id="path23-6"
         style="fill:none;fill-opacity:1;stroke:#000000;stroke-width:0.999998;stroke-linecap:round;stroke-linejoin:round;stroke-dasharray:none;stroke-opacity:1"
         d="m 307.19515,149.68859 c 0.25136,-1.2864 1.36225,-2.27154 2.72265,-2.32305 1.17311,-0.0443 2.20933,0.61645 2.6977,1.60296"
         sodipodi:nodetypes="ccc" />
      <path
         style="font-variation-settings:normal;fill:none;fill-opacity:1;stroke:#000000;stroke-width:0.999998;stroke-linecap:round;stroke-linejoin:round;stroke-dasharray:none;stroke-opacity:1;stop-color:#000000"
         d="m 308.34376,149.32789 -1.20609,0.77179 -0.53232,-1.25094"
         id="path26-8"
         sodipodi:nodetypes="ccc"
         inkscape:transform-center-x="0.35157735"
         inkscape:transform-center-y="0.59164777" />
    </g>
    <g
       id="g13">
      <rect
         style="font-variation-settings:normal;fill:none;fill-opacity:1;stroke:#000000;stroke-width:1;stroke-linecap:round;stroke-linejoin:round;stroke-dasharray:none;stroke-opacity:1"
         id="rect26"
         width="6.9999828"
         height="10.000005"
         x="323.86005"
         y="168.65182" />
      <rect
         style="font-variation-settings:normal;fill:none;fill-opacity:1;stroke:#000000;stroke-width:1;stroke-linecap:round;stroke-linejoin:round;stroke-dasharray:none;stroke-opacity:1"
         id="rect27"
         width="5.5000086"
         height="5.4999995"
         x="332.36005"
         y="166.90182" />
      <rect
         style="font-variation-settings:normal;fill:none;fill-opacity:1;stroke:#000000;stroke-width:1;stroke-linecap:round;stroke-linejoin:round;stroke-dasharray:none;stroke-opacity:1"
         id="rect28"
         width="5"
         height="5"
         x="332.36005"
         y="175.65181" />
      <path
         style="fill:none;stroke:#000000;stroke-width:1;stroke-linecap:round;stroke-linejoin:round;stroke-dasharray:none;stroke-opacity:1"
         d="m 335.15711,169.21188 -5.74456,4"
         id="path29" />
      <path
         style="fill:none;stroke:#000000;stroke-width:1;stroke-linecap:round;stroke-linejoin:round;stroke-dasharray:none;stroke-opacity:1"
         d="m 333.76503,168.96265 1.39208,0.24923 -0.24922,1.39208"
         id="path30" />
      <path
         style="fill:none;stroke:#000000;stroke-width:1;stroke-linecap:round;stroke-linejoin:round;stroke-dasharray:none;stroke-opacity:1"
         d="m 335.16241,178.32737 -7.68639,-2.73173"
         id="path31"
         sodipodi:nodetypes="cc" />
      <path
         style="fill:none;stroke:#000000;stroke-width:1;stroke-linecap:round;stroke-linejoin:round;stroke-dasharray:none;stroke-opacity:1"
         d="m 333.88265,178.9292 1.27976,-0.60183 -0.60183,-1.27976"
         id="path32" />
    </g>
    <text
       xml:space="preserve"
       style="font-style:normal;font-variant:normal;font-weight:normal;font-stretch:normal;font-size:13.3333px;line-height:100%;font-family:Arial;-inkscape-font-specification:Arial;text-align:start;text-decoration:none;text-decoration-line:none;text-decoration-color:#000000;letter-spacing:0.06px;writing-mode:lr-tb;direction:ltr;text-anchor:start;fill:#000000;fill-opacity:1;stroke:none;stroke-width:1;stroke-linecap:round;stroke-linejoin:round;stroke-dasharray:none;stroke-opacity:1"
       x="206.4516"
       y="153.42017"
       id="text3"><tspan
         sodipodi:role="line"
         id="tspan3"
         x="206.4516"
         y="153.42017"
         style="line-height:100%;letter-spacing:0.06px">Orig</tspan></text>
    <text
       xml:space="preserve"
       style="font-style:normal;font-variant:normal;font-weight:normal;font-stretch:normal;font-size:13.3333px;line-height:100%;font-family:Arial;-inkscape-font-specification:Arial;text-align:start;text-decoration:none;text-decoration-line:none;text-decoration-color:#000000;letter-spacing:0.06px;writing-mode:lr-tb;direction:ltr;text-anchor:start;fill:#000000;fill-opacity:1;stroke:none;stroke-width:1;stroke-linecap:round;stroke-linejoin:round;stroke-dasharray:none;stroke-opacity:1"
       x="205.95354"
       y="185.49583"
       id="text3-7"><tspan
         sodipodi:role="line"
         id="tspan3-9"
         x="205.95354"
         y="185.49583"
         style="line-height:100%;letter-spacing:0.06px">Alternatives</tspan></text>
    <text
       xml:space="preserve"
       style="font-style:normal;font-variant:normal;font-weight:normal;font-stretch:normal;font-size:13.3333px;line-height:100%;font-family:Arial;-inkscape-font-specification:Arial;text-align:start;text-decoration:none;text-decoration-line:none;text-decoration-color:#000000;letter-spacing:0.06px;writing-mode:lr-tb;direction:ltr;text-anchor:start;fill:#000000;fill-opacity:1;stroke:none;stroke-width:1;stroke-linecap:round;stroke-linejoin:round;stroke-dasharray:none;stroke-opacity:1"
       x="198.55945"
       y="133.76239"
       id="text3-6"><tspan
         sodipodi:role="line"
         id="tspan3-7"
         x="198.55945"
         y="133.76239"
         style="line-height:100%;letter-spacing:0.06px">Unset</tspan></text>
  </g>
</svg>
